<svg width="16" height="16" viewBox="0 0 16 16" fill="none" xmlns="http://www.w3.org/2000/svg">
<path d="M6.1064 7.74665C6.0864 7.74665 6.07307 7.74665 6.05307 7.74665C6.01973 7.73998 5.97307 7.73998 5.93307 7.74665C3.99973 7.68665 2.53973 6.16665 2.53973 4.29331C2.53973 2.38665 4.09307 0.833313 5.99973 0.833313C7.9064 0.833313 9.45973 2.38665 9.45973 4.29331C9.45307 6.16665 7.9864 7.68665 6.1264 7.74665C6.11973 7.74665 6.11307 7.74665 6.1064 7.74665ZM5.99973 1.83331C4.6464 1.83331 3.53973 2.93998 3.53973 4.29331C3.53973 5.62665 4.57973 6.69998 5.9064 6.74665C5.9464 6.73998 6.03307 6.73998 6.11973 6.74665C7.4264 6.68665 8.45307 5.61331 8.45973 4.29331C8.45973 2.93998 7.35307 1.83331 5.99973 1.83331Z" fill="#787486"/>
<path d="M11.0264 7.83335C11.0064 7.83335 10.9864 7.83335 10.9664 7.82669C10.6931 7.85335 10.4131 7.66002 10.3864 7.38669C10.3597 7.11335 10.5264 6.86669 10.7997 6.83335C10.8797 6.82669 10.9664 6.82669 11.0397 6.82669C12.0131 6.77335 12.7731 5.97335 12.7731 4.99335C12.7731 3.98002 11.9531 3.16002 10.9397 3.16002C10.6664 3.16669 10.4397 2.94002 10.4397 2.66669C10.4397 2.39335 10.6664 2.16669 10.9397 2.16669C12.4997 2.16669 13.7731 3.44002 13.7731 5.00002C13.7731 6.53335 12.5731 7.77335 11.0464 7.83335C11.0397 7.83335 11.0331 7.83335 11.0264 7.83335Z" fill="#787486"/>
<path d="M6.11307 15.0334C4.80641 15.0334 3.49307 14.7 2.49974 14.0334C1.57307 13.42 1.06641 12.58 1.06641 11.6667C1.06641 10.7534 1.57307 9.90669 2.49974 9.28669C4.49974 7.96002 7.73974 7.96002 9.72641 9.28669C10.6464 9.90002 11.1597 10.74 11.1597 11.6534C11.1597 12.5667 10.6531 13.4134 9.72641 14.0334C8.72641 14.7 7.41974 15.0334 6.11307 15.0334ZM3.05307 10.1267C2.41307 10.5534 2.06641 11.1 2.06641 11.6734C2.06641 12.24 2.41974 12.7867 3.05307 13.2067C4.71307 14.32 7.51307 14.32 9.17307 13.2067C9.81307 12.78 10.1597 12.2334 10.1597 11.66C10.1597 11.0934 9.80641 10.5467 9.17307 10.1267C7.51307 9.02002 4.71307 9.02002 3.05307 10.1267Z" fill="#787486"/>
<path d="M12.2264 13.8333C11.9931 13.8333 11.7864 13.6733 11.7397 13.4333C11.6864 13.16 11.8597 12.9 12.1264 12.84C12.5464 12.7533 12.9331 12.5867 13.2331 12.3533C13.6131 12.0667 13.8197 11.7067 13.8197 11.3267C13.8197 10.9467 13.6131 10.5867 13.2397 10.3067C12.9464 10.08 12.5797 9.92001 12.1464 9.82001C11.8797 9.76001 11.7064 9.49335 11.7664 9.22001C11.8264 8.95335 12.0931 8.78001 12.3664 8.84001C12.9397 8.96668 13.4397 9.19335 13.8464 9.50668C14.4664 9.97335 14.8197 10.6333 14.8197 11.3267C14.8197 12.02 14.4597 12.68 13.8397 13.1533C13.4264 13.4733 12.9064 13.7067 12.3331 13.82C12.2931 13.8333 12.2597 13.8333 12.2264 13.8333Z" fill="#787486"/>
</svg>
